Coordinates
nRows=4
nColumns=38

# SIMM Motion File Header:
name Coordinates
datacolumns 38
datarows 4
otherdata 1
range 2.11899999999999980000 2.12199999999999990000

Units are S.I. units (second, meters, Newtons, ...)
Angles are in degrees.

endheader
time	pelvis_tilt	pelvis_list	pelvis_rotation	pelvis_tx	pelvis_ty	pelvis_tz	hip_flexion_r	hip_adduction_r	hip_rotation_r	knee_angle_r	ankle_angle_r	subtalar_angle_r	mtp_angle_r	hip_flexion_l	hip_adduction_l	hip_rotation_l	knee_angle_l	ankle_angle_l	subtalar_angle_l	mtp_angle_l	lumbar_extension	lumbar_bending	lumbar_rotation	arm_flex_r	arm_add_r	arm_rot_r	elbow_flex_r	pro_sup_r	wrist_flex_r	wrist_dev_r	arm_flex_l	arm_add_l	arm_rot_l	elbow_flex_l	pro_sup_l	wrist_flex_l	wrist_dev_l
      2.11899999999999980000	     -1.15744214354029820000	      1.86836237483868020000	     -0.71529845031973538000	      0.81888697467412708000	      1.01844127713844770000	     -0.31493801973697499000	    -13.56758906198158800000	      0.80306112341111680000	      1.92802148367374150000	    -44.49072998111503100000	    -23.82431491435406900000	      0.00000000000004057331	      0.00000000000011033767	     21.43324590291146600000	      6.00867708525676480000	      7.28407097110228820000	    -10.91149240510759100000	      1.44346333511212470000	     -0.00000000000001442521	      0.00000000000001616623	    -10.82053143192617900000	     -6.48564266928947570000	      6.26247793951959420000	    -16.10532912759901300000	    -24.46323833497046300000	    -12.72902193482709700000	    100.62455298128729000000	     73.65483083653086300000	      0.00000000000000314222	      0.00000000000001258038	    -36.75423894429067000000	    -16.41872807976035600000	    -13.61478796648886200000	     94.62738064346378100000	     98.35717341697036900000	      0.00000000000004147207	      0.00000000000000449717
      2.12000000000000010000	     -1.10558491988525010000	      1.89354810550013180000	     -0.71099134063306979000	      0.81875728690279959000	      1.01809120416175800000	     -0.31491480344164358000	    -13.40812680559404800000	      0.78834343013082042000	      1.96861259022179120000	    -45.03966713969059300000	    -23.73363006885956500000	      0.00000000000004070939	      0.00000000000011082329	     21.43835461132865900000	      6.07687472656898200000	      7.24384522737333470000	    -11.23264024298883400000	      1.36444084644708590000	     -0.00000000000001448977	      0.00000000000001623614	    -10.90330821561093600000	     -6.52580017113357690000	      6.20451650020126880000	    -16.10279243416133000000	    -24.44710802982231000000	    -12.69489345329534800000	    100.58921482826064000000	     73.62034562621126100000	      0.00000000000000314742	      0.00000000000001263865	    -36.62827681816678200000	    -16.47329969528500400000	    -13.55771893894382500000	     94.60190952082345500000	     98.38261078360810100000	      0.00000000000004168661	      0.00000000000000450307
      2.12100000000000000000	     -1.05470701571757020000	      1.91972551089882230000	     -0.70535540139644781000	      0.81862512665203058000	      1.01773095157636910000	     -0.31489363399368792000	    -13.24595997041771700000	      0.77295500496503389000	      2.00616903784479780000	    -45.58947220984209300000	    -23.63864921827369900000	      0.00000000000004084558	      0.00000000000011130937	     21.44667370059859500000	      6.14733843383012780000	      7.20590354439930980000	    -11.56569932392973100000	      1.28677965473476900000	     -0.00000000000001455427	      0.00000000000001630700	    -10.98526237674671300000	     -6.56684549172328500000	      6.14519513287564760000	    -16.10068854250380400000	    -24.43014373302493100000	    -12.66104322494620300000	    100.55247495363356000000	     73.58671580870074500000	      0.00000000000000315253	      0.00000000000001269597	    -36.50062311587197400000	    -16.52977870912483700000	    -13.49877981488234000000	     94.57611094313445200000	     98.40259509608161200000	      0.00000000000004190042	      0.00000000000000450900
      2.12199999999999990000	     -1.00487715561432430000	      1.94686875109243230000	     -0.69838073670643097000	      0.81849050935277856000	      1.01736050662561710000	     -0.31487456191329904000	    -13.08104924160206700000	      0.75685436969029640000	      2.04063897342671210000	    -46.14004471037159000000	    -23.53943705534914300000	      0.00000000000004098338	      0.00000000000011179472	     21.45814235699797500000	      6.22001075023718200000	      7.17030123424187950000	    -11.91016070041726000000	      1.21103871873612980000	     -0.00000000000001462065	      0.00000000000001637990	    -11.06632413575178800000	     -6.60873554641717660000	      6.08451057409232020000	    -16.09902964372092900000	    -24.41236593311124600000	    -12.62750690495672300000	    100.51433333701256000000	     73.55400172935186700000	      0.00000000000000315775	      0.00000000000001275282	    -36.37129066058093900000	    -16.58811801063524200000	    -13.43801495501883800000	     94.55000818693992000000	     98.41710472309844700000	      0.00000000000004211404	      0.00000000000000451444
